name rise49.8558peak67.6521fall70.3087.mot
datacolumns 19
datarows 21
range 3.35998700000000 3.39332400000000
endheader
time	ground_force1_vx	ground_force1_vy	ground_force1_vz	ground_force1_px	ground_force1_py	ground_force1_pz	ground_force2_vx	ground_force2_vy	ground_force2_vz	ground_force2_px	ground_force2_py	ground_force2_pz	ground_torque1_x	ground_torque1_y	ground_torque1_z	ground_torque2_x	ground_torque2_y	ground_torque2_z	
3.35998700000000	68.77112000000000	726.58424300000001	48.05073300000000	0.35133000000000	0.00000000000000	0.07409100000000	0.01543300000000	3.30643800000000	0.63277700000000	0.00000000000000	0.00000000000000	0.00000000000000	0.00000000000000	23.87420600000000	0.00000000000000	0.00000000000000	0.00608700000000	0.00000000000000	
3.36165400000000	68.42285400000000	730.85501699999998	48.35914700000000	0.35073900000000	0.00000000000000	0.07407800000000	0.00000000000000	0.00000000000000	0.00000000000000	0.00000000000000	0.00000000000000	0.00000000000000	0.00000000000000	24.04218200000000	0.00000000000000	0.00000000000000	0.00000000000000	0.00000000000000	
3.36332200000000	68.06755400000000	735.03132500000004	48.67060000000000	0.35018200000000	0.00000000000000	0.07406300000000	0.00000000000000	0.00000000000000	0.00000000000000	0.00000000000000	0.00000000000000	0.00000000000000	0.00000000000000	24.21506600000000	0.00000000000000	0.00000000000000	0.00000000000000	0.00000000000000	
3.36499300000000	67.70523000000000	739.10809500000005	48.98429000000000	0.34965700000000	0.00000000000000	0.07404700000000	0.00000000000000	0.00000000000000	0.00000000000000	0.00000000000000	0.00000000000000	0.00000000000000	0.00000000000000	24.39228900000000	0.00000000000000	0.00000000000000	0.00000000000000	0.00000000000000	
3.36665800000000	67.33585700000000	743.08034199999997	49.29933700000000	0.34916200000000	0.00000000000000	0.07403100000000	0.00000000000000	0.00000000000000	0.00000000000000	0.00000000000000	0.00000000000000	0.00000000000000	0.00000000000000	24.57321900000000	0.00000000000000	0.00000000000000	0.00000000000000	0.00000000000000	
3.36831600000000	66.95938300000000	746.94318399999997	49.61478900000000	0.34869500000000	0.00000000000000	0.07401200000000	0.00000000000000	0.00000000000000	0.00000000000000	0.00000000000000	0.00000000000000	0.00000000000000	0.00000000000000	24.75717200000000	0.00000000000000	0.00000000000000	0.00000000000000	0.00000000000000	
3.36999000000000	66.57572900000000	750.69186800000000	49.92962600000000	0.34825300000000	0.00000000000000	0.07399300000000	0.00000000000000	0.00000000000000	0.00000000000000	0.00000000000000	0.00000000000000	0.00000000000000	0.00000000000000	24.94341500000000	0.00000000000000	0.00000000000000	0.00000000000000	0.00000000000000	
3.37165400000000	66.18479700000000	754.32178799999997	50.24277300000000	0.34783500000000	0.00000000000000	0.07397300000000	0.00000000000000	0.00000000000000	0.00000000000000	0.00000000000000	0.00000000000000	0.00000000000000	0.00000000000000	25.13116700000000	0.00000000000000	0.00000000000000	0.00000000000000	0.00000000000000	
3.37333000000000	65.78647100000001	757.82850399999995	50.55310100000000	0.34743700000000	0.00000000000000	0.07395100000000	0.00000000000000	0.00000000000000	0.00000000000000	0.00000000000000	0.00000000000000	0.00000000000000	0.00000000000000	25.31960600000000	0.00000000000000	0.00000000000000	0.00000000000000	0.00000000000000	
3.37498600000000	65.38062300000000	761.20776200000000	50.85944000000000	0.34705700000000	0.00000000000000	0.07392900000000	0.00000000000000	0.00000000000000	0.00000000000000	0.00000000000000	0.00000000000000	0.00000000000000	0.00000000000000	25.50787700000000	0.00000000000000	0.00000000000000	0.00000000000000	0.00000000000000	
3.37665800000000	64.96711200000000	764.45551100000000	51.16058300000000	0.34669200000000	0.00000000000000	0.07390500000000	0.00000000000000	0.00000000000000	0.00000000000000	0.00000000000000	0.00000000000000	0.00000000000000	0.00000000000000	25.69509200000000	0.00000000000000	0.00000000000000	0.00000000000000	0.00000000000000	
3.37832500000000	64.54579500000000	767.56792399999995	51.45529600000000	0.34634100000000	0.00000000000000	0.07388100000000	0.00000000000000	0.00000000000000	0.00000000000000	0.00000000000000	0.00000000000000	0.00000000000000	0.00000000000000	25.88033900000000	0.00000000000000	0.00000000000000	0.00000000000000	0.00000000000000	
3.37999500000000	64.11652599999999	770.54140700000005	51.74232700000000	0.34600000000000	0.00000000000000	0.07385500000000	0.00000000000000	0.00000000000000	0.00000000000000	0.00000000000000	0.00000000000000	0.00000000000000	0.00000000000000	26.06268600000000	0.00000000000000	0.00000000000000	0.00000000000000	0.00000000000000	
3.38165300000000	63.67916000000000	773.37262299999998	52.02041100000000	0.34566700000000	0.00000000000000	0.07382900000000	0.00000000000000	0.00000000000000	0.00000000000000	0.00000000000000	0.00000000000000	0.00000000000000	0.00000000000000	26.24118800000000	0.00000000000000	0.00000000000000	0.00000000000000	0.00000000000000	
3.38331900000000	63.23355800000000	776.05849599999999	52.28828400000000	0.34533900000000	0.00000000000000	0.07380200000000	0.00000000000000	0.00000000000000	0.00000000000000	0.00000000000000	0.00000000000000	0.00000000000000	0.00000000000000	26.41489000000000	0.00000000000000	0.00000000000000	0.00000000000000	0.00000000000000	
3.38498600000000	62.77959200000000	778.59623399999998	52.54468600000000	0.34501300000000	0.00000000000000	0.07377400000000	0.00000000000000	0.00000000000000	0.00000000000000	0.00000000000000	0.00000000000000	0.00000000000000	0.00000000000000	26.58283800000000	0.00000000000000	0.00000000000000	0.00000000000000	0.00000000000000	
3.38665200000000	62.31714300000000	780.98333300000002	52.78837100000000	0.34468800000000	0.00000000000000	0.07374500000000	0.00000000000000	0.00000000000000	0.00000000000000	0.00000000000000	0.00000000000000	0.00000000000000	0.00000000000000	26.74408000000000	0.00000000000000	0.00000000000000	0.00000000000000	0.00000000000000	
3.38831800000000	61.84611000000000	783.21758899999998	53.01811800000000	0.34435900000000	0.00000000000000	0.07371600000000	0.00000000000000	0.00000000000000	0.00000000000000	0.00000000000000	0.00000000000000	0.00000000000000	0.00000000000000	26.89767300000000	0.00000000000000	0.00000000000000	0.00000000000000	0.00000000000000	
3.38998700000000	61.36640900000000	785.29710999999998	53.23273500000000	0.34402600000000	0.00000000000000	0.07368600000000	0.00000000000000	0.00000000000000	0.00000000000000	0.00000000000000	0.00000000000000	0.00000000000000	0.00000000000000	27.04269100000000	0.00000000000000	0.00000000000000	0.00000000000000	0.00000000000000	
3.39165100000000	60.87798000000000	787.22032100000001	53.43106900000000	0.34368400000000	0.00000000000000	0.07365500000000	0.00000000000000	0.00000000000000	0.00000000000000	0.00000000000000	0.00000000000000	0.00000000000000	0.00000000000000	27.17822800000000	0.00000000000000	0.00000000000000	0.00000000000000	0.00000000000000	
3.39332400000000	60.38078300000000	788.98596799999996	53.61201300000000	0.34333300000000	0.00000000000000	0.07362400000000	0.00000000000000	0.00000000000000	0.00000000000000	0.00000000000000	0.00000000000000	0.00000000000000	0.00000000000000	27.30340700000000	0.00000000000000	0.00000000000000	0.00000000000000	0.00000000000000	
